<svg width="38" height="38" viewBox="0 0 38 38" fill="none" xmlns="http://www.w3.org/2000/svg">
<path fill-rule="evenodd" clip-rule="evenodd" d="M18.75 6.20833V0H19.25V6.20833H20.4434L19 8.70833L17.5566 6.20833H18.75ZM28.0714 19C28.0714 24.01 24.01 28.0714 19 28.0714C13.99 28.0714 9.92857 24.01 9.92857 19C9.92857 13.99 13.99 9.92857 19 9.92857C24.01 9.92857 28.0714 13.99 28.0714 19ZM28.5 19C28.5 24.2467 24.2467 28.5 19 28.5C13.7533 28.5 9.5 24.2467 9.5 19C9.5 13.7533 13.7533 9.5 19 9.5C24.2467 9.5 28.5 13.7533 28.5 19ZM27.1433 19.0001C27.1433 23.4972 23.4976 27.1429 19.0004 27.1429C14.5033 27.1429 10.8576 23.4972 10.8576 19.0001C10.8576 14.5029 14.5033 10.8572 19.0004 10.8572C23.4976 10.8572 27.1433 14.5029 27.1433 19.0001ZM19.0923 15.2698C19.2948 15.2788 19.496 15.318 19.6891 15.3872C20.0839 15.5288 20.4254 15.7889 20.6668 16.1319C20.9082 16.4749 21.0377 16.8841 21.0377 17.3035H20.183C20.183 17.0602 20.1078 16.8228 19.9678 16.6238C19.8277 16.4248 19.6296 16.274 19.4006 16.1918C19.1715 16.1097 18.9227 16.1003 18.6881 16.165C18.4536 16.2297 18.2447 16.3652 18.0901 16.5531C17.9355 16.741 17.8427 16.9721 17.8244 17.2147C17.8061 17.4574 17.8632 17.6997 17.9879 17.9087C18.1126 18.1176 18.2988 18.283 18.521 18.3821C18.6108 18.4221 18.7047 18.4506 18.8005 18.4672C18.935 18.4538 19.07 18.4539 19.2035 18.4672L19.2294 18.4624L19.2309 18.4701C19.4547 18.4954 19.674 18.5578 19.8796 18.6561C20.2557 18.8358 20.5676 19.1266 20.7731 19.4892C20.9786 19.8519 21.0679 20.2689 21.0288 20.6839C20.9896 21.0989 20.8241 21.4919 20.5544 21.8098C20.2848 22.1276 19.9241 22.3551 19.521 22.4613C19.38 22.4985 19.2361 22.5202 19.092 22.5266V23.75H18.6634V22.5002C18.5404 22.4795 18.4189 22.4474 18.3006 22.404C17.9093 22.2604 17.5715 22.0001 17.3329 21.6583C17.0943 21.3165 16.9663 20.9097 16.9663 20.4929H17.805C17.805 20.738 17.8803 20.9772 18.0206 21.1782C18.1609 21.3791 18.3595 21.5322 18.5896 21.6166C18.8197 21.701 19.0702 21.7128 19.3072 21.6503C19.5442 21.5879 19.7563 21.4541 19.9148 21.2672C20.0734 21.0803 20.1707 20.8492 20.1937 20.6052C20.2167 20.3612 20.1643 20.116 20.0434 19.9027C19.9226 19.6895 19.7392 19.5185 19.518 19.4128C19.4342 19.3728 19.3464 19.3428 19.2565 19.3233C18.8883 19.3697 18.5134 19.3146 18.1729 19.1627C17.7898 18.9919 17.4688 18.7069 17.2539 18.3467C17.039 17.9865 16.9405 17.5687 16.9721 17.1505C17.0036 16.7322 17.1636 16.3339 17.4301 16.01C17.6966 15.6862 18.0566 15.4525 18.461 15.341C18.5279 15.3226 18.5954 15.3076 18.6634 15.2962V14.25H18.6637H19.092H19.0923V15.2698ZM18.75 38V31.7917H17.5566L19 29.2917L20.4434 31.7917H19.25V38H18.75ZM31.7917 18.75H38V19.25H31.7917V20.4434L29.2917 19L31.7917 17.5566V18.75ZM0 18.75H6.20833V17.5566L8.70833 19L6.20833 20.4434V19.25H0V18.75Z" fill="white"/>
</svg>
