<?xml version="1.0" encoding="UTF-8"?>
<svg version="1.1" xmlns="http://www.w3.org/2000/svg" width="512" height="512">
<path d="M0 0 C0.91297852 0.16628906 1.82595703 0.33257812 2.76660156 0.50390625 C44.3986228 8.16363077 83.16052206 26.40624883 116 53 C116.54446777 53.44005371 117.08893555 53.88010742 117.64990234 54.33349609 C131.72173929 65.81174863 144.93680647 78.57719064 156 93 C156.75925781 93.93070312 157.51851563 94.86140625 158.30078125 95.8203125 C184.1596216 128.07168914 200.62794761 167.52514646 208 208 C208.16371094 208.83563477 208.32742188 209.67126953 208.49609375 210.53222656 C213.78656862 238.24163521 213.41678597 270.35093304 208 298 C207.83371094 298.91297852 207.66742188 299.82595703 207.49609375 300.76660156 C199.83636923 342.3986228 181.59375117 381.16052206 155 414 C154.55994629 414.54446777 154.11989258 415.08893555 153.66650391 415.64990234 C142.18825137 429.72173929 129.42280936 442.93680647 115 454 C114.06929688 454.75925781 113.13859375 455.51851563 112.1796875 456.30078125 C79.92831086 482.1596216 40.47485354 498.62794761 0 506 C-0.83563477 506.16371094 -1.67126953 506.32742188 -2.53222656 506.49609375 C-30.24163521 511.78656862 -62.35093304 511.41678597 -90 506 C-90.91297852 505.83371094 -91.82595703 505.66742188 -92.76660156 505.49609375 C-134.3986228 497.83636923 -173.16052206 479.59375117 -206 453 C-206.54446777 452.55994629 -207.08893555 452.11989258 -207.64990234 451.66650391 C-221.72173929 440.18825137 -234.93680647 427.42280936 -246 413 C-246.75925781 412.06929688 -247.51851562 411.13859375 -248.30078125 410.1796875 C-274.1596216 377.92831086 -290.62794761 338.47485354 -298 298 C-298.16371094 297.16436523 -298.32742188 296.32873047 -298.49609375 295.46777344 C-303.78656862 267.75836479 -303.41678597 235.64906696 -298 208 C-297.83371094 207.08702148 -297.66742188 206.17404297 -297.49609375 205.23339844 C-289.83636923 163.6013772 -271.59375117 124.83947794 -245 92 C-244.55994629 91.45553223 -244.11989258 90.91106445 -243.66650391 90.35009766 C-232.18825137 76.27826071 -219.42280936 63.06319353 -205 52 C-204.06929688 51.24074219 -203.13859375 50.48148438 -202.1796875 49.69921875 C-169.92831086 23.8403784 -130.47485354 7.37205239 -90 0 C-89.16436523 -0.16371094 -88.32873047 -0.32742188 -87.46777344 -0.49609375 C-59.75836479 -5.78656862 -27.64906696 -5.41678597 0 0 Z " fill="#ED5152" transform="translate(301,3)"/>
<path d="M0 0 C0.91297852 0.16628906 1.82595703 0.33257812 2.76660156 0.50390625 C44.3986228 8.16363077 83.16052206 26.40624883 116 53 C116.54446777 53.44005371 117.08893555 53.88010742 117.64990234 54.33349609 C131.72173929 65.81174863 144.93680647 78.57719064 156 93 C156.75925781 93.93070312 157.51851563 94.86140625 158.30078125 95.8203125 C184.1596216 128.07168914 200.62794761 167.52514646 208 208 C208.16371094 208.83563477 208.32742188 209.67126953 208.49609375 210.53222656 C213.78656862 238.24163521 213.41678597 270.35093304 208 298 C207.83371094 298.91297852 207.66742188 299.82595703 207.49609375 300.76660156 C199.83636923 342.3986228 181.59375117 381.16052206 155 414 C154.55994629 414.54446777 154.11989258 415.08893555 153.66650391 415.64990234 C142.18825137 429.72173929 129.42280936 442.93680647 115 454 C114.06929688 454.75925781 113.13859375 455.51851563 112.1796875 456.30078125 C79.92831086 482.1596216 40.47485354 498.62794761 0 506 C-0.83563477 506.16371094 -1.67126953 506.32742188 -2.53222656 506.49609375 C-30.24163521 511.78656862 -62.35093304 511.41678597 -90 506 C-90.91297852 505.83371094 -91.82595703 505.66742188 -92.76660156 505.49609375 C-134.3986228 497.83636923 -173.16052206 479.59375117 -206 453 C-206.54446777 452.55994629 -207.08893555 452.11989258 -207.64990234 451.66650391 C-221.72173929 440.18825137 -234.93680647 427.42280936 -246 413 C-246.75925781 412.06929688 -247.51851562 411.13859375 -248.30078125 410.1796875 C-274.1596216 377.92831086 -290.62794761 338.47485354 -298 298 C-298.16371094 297.16436523 -298.32742188 296.32873047 -298.49609375 295.46777344 C-303.78656862 267.75836479 -303.41678597 235.64906696 -298 208 C-297.83371094 207.08702148 -297.66742188 206.17404297 -297.49609375 205.23339844 C-289.83636923 163.6013772 -271.59375117 124.83947794 -245 92 C-244.55994629 91.45553223 -244.11989258 90.91106445 -243.66650391 90.35009766 C-232.18825137 76.27826071 -219.42280936 63.06319353 -205 52 C-204.06929688 51.24074219 -203.13859375 50.48148438 -202.1796875 49.69921875 C-169.92831086 23.8403784 -130.47485354 7.37205239 -90 0 C-89.16436523 -0.16371094 -88.32873047 -0.32742188 -87.46777344 -0.49609375 C-59.75836479 -5.78656862 -27.64906696 -5.41678597 0 0 Z M-85 36 C-85.96599121 36.18804199 -86.93198242 36.37608398 -87.92724609 36.56982422 C-129.2290345 44.87245464 -168.4771043 64.69441883 -198 95 C-200.37908063 97.39307522 -202.75591677 99.77138683 -205.21875 102.078125 C-235.55276064 130.95776526 -253.97663616 172.53550171 -262 213 C-262.17789063 213.88236328 -262.35578125 214.76472656 -262.5390625 215.67382812 C-267.25932741 240.23044438 -266.8334917 267.50999711 -262 292 C-261.73461426 293.36487549 -261.73461426 293.36487549 -261.46386719 294.75732422 C-252.06916089 341.8200973 -227.62890647 388.29780765 -190 419 C-188.84975634 419.97336297 -187.7000732 420.94738849 -186.55078125 421.921875 C-157.12179399 446.63631264 -122.65061746 462.54566228 -85 470 C-84.11231934 470.17789062 -83.22463867 470.35578125 -82.31005859 470.5390625 C-57.65682208 475.24291683 -30.60123394 474.62259666 -6 470 C-5.0836377 469.82839355 -4.16727539 469.65678711 -3.22314453 469.47998047 C50.34977254 459.0741318 99.756393 428.16932466 132 384 C132.6290625 383.154375 133.258125 382.30875 133.90625 381.4375 C160.70132876 344.41157299 175.21047561 299.36718009 175.25 253.75 C175.25067474 253.04513458 175.25134949 252.34026917 175.25204468 251.61404419 C175.23328665 239.20201299 174.3095788 227.20584232 172 215 C171.82839355 214.06397949 171.65678711 213.12795898 171.47998047 212.16357422 C161.36498114 158.15363592 130.49505207 108.48138801 86 76 C85.154375 75.3709375 84.30875 74.741875 83.4375 74.09375 C35.86360102 39.66527047 -27.14630582 24.46297667 -85 36 Z " fill="#FE6A6A" transform="translate(301,3)"/>
<path d="M0 0 C2.01726896 1.74466504 3.6037479 3.44931639 5.32373047 5.47241211 C12.59384203 13.84218365 20.55923082 21.59024155 28.36474609 29.45727539 C30.42509457 31.53558058 32.47654438 33.62212146 34.52099609 35.71606445 C37.00569495 38.2607904 39.50465661 40.79062978 42.01467514 43.31037712 C43.42540068 44.733815 44.82136794 46.17183044 46.21707153 47.61000061 C47.07501312 48.46516769 47.93295471 49.32033478 48.81689453 50.20141602 C49.56633331 50.96116226 50.31577209 51.72090851 51.08792114 52.50367737 C53.20372252 54.21862789 53.20372252 54.21862789 55.75590515 54.04759216 C59.18292227 52.64333514 61.11094537 50.67328794 63.71362305 48.03710938 C64.22807983 47.5216304 64.74253662 47.00615143 65.27258301 46.47505188 C66.9659872 44.77378116 68.64489142 43.05890767 70.32421875 41.34375 C71.4996051 40.15835971 72.67595501 38.97392414 73.85322571 37.79040527 C76.94692133 34.67579 80.02884978 31.54979349 83.10803223 28.4208374 C88.04413792 23.40941143 92.99906365 18.41657253 97.95179176 13.42158508 C99.68211494 11.67352909 101.40816957 9.92134835 103.13346863 8.16833496 C104.18878347 7.09980499 105.2441449 6.03132102 106.29956055 4.96289062 C107.22157761 4.02658813 108.14359467 3.09028564 109.09355164 2.12561035 C112.36715821 -1.01029499 114.55541607 -1.35557566 119.09765625 -1.2734375 C126.39136852 -0.3729792 131.78662822 4.52824496 136.3125 10 C138.94700668 13.99425206 139.66275971 17.20831063 139.80859375 21.875 C138.52717529 27.36391058 134.07008737 31.47212997 130.16088867 35.28344727 C129.41145493 36.01886246 129.41145493 36.01886246 128.6468811 36.76913452 C127.5713817 37.8237715 126.49369511 38.87618185 125.41402245 39.9265461 C123.70646331 41.58978867 122.00718852 43.26108666 120.31013489 44.93504333 C115.48798609 49.69022671 110.6575145 54.43670236 105.80688477 59.1628418 C102.8328212 62.06171995 99.87348448 64.97494521 96.92315102 67.89796257 C95.7974643 69.00752987 94.66624629 70.11151417 93.52950096 71.20974922 C91.94475805 72.74167582 90.37938697 74.29113504 88.81713867 75.84594727 C87.92097336 76.7227565 87.02480804 77.59956573 86.10148621 78.50294495 C84.09005629 80.82523481 84.09005629 80.82523481 84.22077942 83.48455811 C85.68165729 86.85057818 87.6626945 88.82162939 90.27539062 91.40112305 C90.7908696 91.91557983 91.30634857 92.43003662 91.83744812 92.96008301 C93.53871884 94.6534872 95.25359233 96.33239142 96.96875 98.01171875 C98.15414029 99.1871051 99.33857586 100.36345501 100.52209473 101.54072571 C103.63671 104.63442133 106.76270651 107.71634978 109.8916626 110.79553223 C114.90308857 115.73163792 119.89592747 120.68656365 124.89091492 125.63929176 C126.63897091 127.36961494 128.39115165 129.09566957 130.14416504 130.82096863 C131.21269501 131.87628347 132.28117898 132.9316449 133.34960938 133.98706055 C134.28591187 134.90907761 135.22221436 135.83109467 136.18688965 136.78105164 C138.724002 139.42957153 139.23273846 140.36190765 139.6875 144 C139.5438047 150.27034053 136.52421318 155.85800808 132.08203125 160.16015625 C126.6519357 164.47411471 122.21196219 166.72474907 115.17131042 166.56735229 C111.62317385 165.86319807 110.24666357 164.61310644 107.63793945 162.13330078 C106.76980621 161.31315491 105.90167297 160.49300903 105.00723267 159.64801025 C100.50926077 155.22802609 96.06917967 150.75850682 91.66796875 146.2421875 C89.67465767 144.21404515 87.6778166 142.18938471 85.68164062 140.1640625 C82.5683597 137.00273122 79.46011143 133.83679869 76.36645508 130.65625 C73.83914603 128.05882107 71.29753892 125.47618223 68.7456913 122.90286636 C67.78138643 121.92498276 66.82251558 120.94170906 65.86931419 119.95299911 C64.54429104 118.57987105 63.19872796 117.22665266 61.85229492 115.87451172 C61.09413986 115.10001678 60.3359848 114.32552185 59.55485535 113.52755737 C57.42656345 111.77810529 57.42656345 111.77810529 54.85861206 111.95439148 C51.4824763 113.34086475 49.59537023 115.252363 47.03491211 117.85522461 C46.53342148 118.35934372 46.03193085 118.86346283 45.51524353 119.38285828 C43.86404641 121.04700968 42.22726321 122.72464411 40.58984375 124.40234375 C39.44174374 125.56299007 38.29260371 126.72260846 37.14247131 127.88124084 C34.11875806 130.93154074 31.1063796 133.99277208 28.09710693 137.05731201 C23.27952056 141.96117972 18.44846082 146.85168159 13.61078072 151.73571968 C11.92420921 153.44271352 10.2446437 155.15638232 8.56565857 156.87083435 C7.53090419 157.91924755 6.49592763 158.96744152 5.46069336 160.01538086 C4.56088242 160.93169785 3.66107147 161.84801483 2.73399353 162.792099 C-0.53006405 165.76824405 -2.56129445 166.87005321 -6.9375 167.375 C-14.03546761 166.66520324 -19.06359639 163.39455421 -23.6875 158 C-27.21758426 153.0971052 -29.21128114 149.32883463 -29.07850647 143.14825439 C-27.62865114 135.18250873 -18.49031102 128.60339608 -12.94795418 123.20182037 C-11.31610125 121.60984103 -9.69226465 120.01006811 -8.07041931 118.40789795 C-3.46421491 113.85936899 1.15211397 109.3213063 5.7824707 104.79736328 C8.62694869 102.01716909 11.45922964 99.2250374 14.28409004 96.42491913 C15.36041027 95.36287193 16.44138668 94.30552233 17.52702141 93.25299835 C19.03727139 91.78825373 20.53158985 90.30888917 22.02319336 88.82519531 C22.87779648 87.98772766 23.7323996 87.15026001 24.61289978 86.28741455 C26.49216831 84.20974369 26.49216831 84.20974369 26.3840332 82.0211792 C24.84293579 79.11428464 22.80006538 77.14624332 20.45727539 74.8359375 C19.95315628 74.3345929 19.44903717 73.83324829 18.92964172 73.31671143 C17.26319329 71.66253909 15.58660371 70.01903228 13.91015625 68.375 C12.74972786 67.22524947 11.59010633 66.07468408 10.43125916 64.92333984 C7.37878317 61.89365256 4.3182955 58.87220579 1.25518799 55.85327148 C-3.64560623 51.02263634 -8.5389778 46.18458899 -13.42321968 41.33721924 C-15.13054878 39.64658189 -16.84417505 37.96251651 -18.55833435 36.27880859 C-19.6067799 35.24082586 -20.65497551 34.20259059 -21.70288086 33.1640625 C-22.61919785 32.26123535 -23.53551483 31.3584082 -24.479599 30.42822266 C-28.08054501 26.46794605 -29.17405333 23.59040239 -28.9921875 18.14453125 C-27.99928187 11.15600318 -23.92335803 6.84261514 -18.6875 2.4453125 C-12.97805393 -1.68065438 -6.68485417 -2.4873876 0 0 Z " fill="#E4E9F7" transform="translate(200.6875,173)"/>
<path d="M0 0 C0 0.33 0 0.66 0 1 C-0.56468994 1.02392822 -1.12937988 1.04785645 -1.71118164 1.07250977 C-38.49286327 2.85824189 -74.56740009 13.70534685 -107 31 C-107.64888184 31.34111816 -108.29776367 31.68223633 -108.96630859 32.03369141 C-126.7279833 41.42406708 -142.82829303 53.31597764 -157.640625 66.86328125 C-159.68167962 68.71171979 -161.76374282 70.48334885 -163.875 72.25 C-207.80761532 110.70208786 -236.81253132 173.94460275 -240.72265625 231.63671875 C-243.82613812 292.10999646 -231.96523558 352.05712493 -196 402 C-195.52949219 402.65838867 -195.05898437 403.31677734 -194.57421875 403.99511719 C-188.6412862 412.24878127 -182.42291687 420.01756735 -175.44140625 427.40625 C-173.42048422 429.55327757 -171.51218419 431.7372337 -169.625 434 C-135.71043421 472.79378398 -84.90402569 495.85014556 -35.49829102 506.45117188 C-33.92145582 506.79757327 -32.34821762 507.1612066 -30.78100586 507.54882812 C-24.38237144 509.10809222 -17.99562439 509.64272684 -11.4375 510.125 C-10.33341797 510.21136719 -9.22933594 510.29773438 -8.09179688 510.38671875 C-5.39491733 510.59686521 -2.69773286 510.80116248 0 511 C0 511.33 0 511.66 0 512 C-17.60680667 512.36489821 -34.62135112 512.10802803 -52 509 C-52.93473145 508.83371094 -53.86946289 508.66742188 -54.83251953 508.49609375 C-96.43578556 500.8220498 -135.1813794 482.57686068 -168 456 C-168.54446777 455.55994629 -169.08893555 455.11989258 -169.64990234 454.66650391 C-183.72173929 443.18825137 -196.93680647 430.42280936 -208 416 C-208.75925781 415.06929688 -209.51851562 414.13859375 -210.30078125 413.1796875 C-236.1596216 380.92831086 -252.62794761 341.47485354 -260 301 C-260.16371094 300.16436523 -260.32742188 299.32873047 -260.49609375 298.46777344 C-265.78656862 270.75836479 -265.41678597 238.64906696 -260 211 C-259.83371094 210.08702148 -259.66742188 209.17404297 -259.49609375 208.23339844 C-251.83636923 166.6013772 -233.59375117 127.83947794 -207 95 C-206.55994629 94.45553223 -206.11989258 93.91106445 -205.66650391 93.35009766 C-194.18825137 79.27826071 -181.42280936 66.06319353 -167 55 C-166.06929688 54.24074219 -165.13859375 53.48148438 -164.1796875 52.69921875 C-132.01381899 26.90893799 -92.42830781 10.19221059 -52 3 C-51.08460449 2.83628906 -50.16920898 2.67257812 -49.22607422 2.50390625 C-32.81221962 -0.30575091 -16.60444462 -0.34412442 0 0 Z " fill="#EE5253" transform="translate(263,0)"/>
<path d="M0 0 C3.125 1.5 3.125 1.5 5 3 C4.60167969 3.43570313 4.20335937 3.87140625 3.79296875 4.3203125 C-1.42943481 10.19075154 -4.31298897 14.76446827 -4.3984375 22.75390625 C-3.45991671 28.04458717 0.31296176 31.54118408 4.0222168 35.16992188 C4.52008698 35.66005264 5.01795715 36.15018341 5.53091431 36.65516663 C6.60587455 37.71255191 7.68303996 38.76769917 8.76218224 39.82081604 C10.46953023 41.4885907 12.16912159 43.16391318 13.86665344 44.8416748 C18.69153922 49.60864173 23.52610184 54.36561609 28.37524414 59.10791016 C31.34600068 62.01427311 34.30447784 64.93266524 37.25553322 67.85902405 C38.38125984 68.97048732 39.51164202 70.07725567 40.64670372 71.17918396 C42.23138209 72.71821072 43.80002307 74.27202574 45.3659668 75.83007812 C46.2629277 76.70990356 47.15988861 77.589729 48.08403015 78.49621582 C50 81 50 81 50.58598328 83.49227905 C49.740195 87.11183796 47.8966401 88.695708 45.25830078 91.29345703 C44.7543277 91.79655396 44.25035461 92.29965088 43.73110962 92.81799316 C42.06393455 94.47659379 40.37987345 96.11688867 38.6953125 97.7578125 C37.53309245 98.90816305 36.37204609 100.05970052 35.21212769 101.21237183 C32.15592432 104.24382241 29.08545819 107.26040001 26.01135254 110.27368164 C21.68166436 114.52295692 17.37156097 118.79211 13.05929565 123.05905151 C10.76284461 125.33126821 8.4610477 127.59785123 6.15481567 129.86013794 C5.10335421 130.89518334 4.05191078 131.93024705 3.00048828 132.96533203 C2.08115509 133.86736359 1.1618219 134.76939514 0.21463013 135.69876099 C-2.72424471 138.75256819 -4.30705651 140.83459639 -4.4375 145.0625 C-4.29313619 151.85870419 -1.11076322 157.6039985 3.3125 162.625 C3.869375 163.07875 4.42625 163.5325 5 164 C1.83801059 166.46789418 -0.37237962 167.9070192 -4.375 168.5 C-11.38843284 167.53262995 -16.39527361 164.37218078 -21 159 C-24.53008426 154.0971052 -26.52378114 150.32883463 -26.39100647 144.14825439 C-24.94115114 136.18250873 -15.80281102 129.60339608 -10.26045418 124.20182037 C-8.62860125 122.60984103 -7.00476465 121.01006811 -5.38291931 119.40789795 C-0.77671491 114.85936899 3.83961397 110.3213063 8.4699707 105.79736328 C11.31444869 103.01716909 14.14672964 100.2250374 16.97159004 97.42491913 C18.04791027 96.36287193 19.12888668 95.30552233 20.21452141 94.25299835 C21.72477139 92.78825373 23.21908985 91.30888917 24.71069336 89.82519531 C25.56529648 88.98772766 26.4198996 88.15026001 27.30039978 87.28741455 C29.17966831 85.20974369 29.17966831 85.20974369 29.0715332 83.0211792 C27.53043579 80.11428464 25.48756538 78.14624332 23.14477539 75.8359375 C22.64065628 75.3345929 22.13653717 74.83324829 21.61714172 74.31671143 C19.95069329 72.66253909 18.27410371 71.01903228 16.59765625 69.375 C15.43722786 68.22524947 14.27760633 67.07468408 13.11875916 65.92333984 C10.06628317 62.89365256 7.0057955 59.87220579 3.94268799 56.85327148 C-0.95810623 52.02263634 -5.8514778 47.18458899 -10.73571968 42.33721924 C-12.44304878 40.64658189 -14.15667505 38.96251651 -15.87083435 37.27880859 C-16.9192799 36.24082586 -17.96747551 35.20259059 -19.01538086 34.1640625 C-19.93169785 33.26123535 -20.84801483 32.3584082 -21.792099 31.42822266 C-25.39304501 27.46794605 -26.48655333 24.59040239 -26.3046875 19.14453125 C-25.31178187 12.15600318 -21.23585803 7.84261514 -16 3.4453125 C-10.78721597 -0.32173846 -6.333859 -0.70603598 0 0 Z " fill="#D8DAE3" transform="translate(198,172)"/>
</svg>
